<svg width="58" height="58" viewBox="0 0 58 58" fill="none" xmlns="http://www.w3.org/2000/svg">
<g clip-path="url(#clip0)">
<path d="M45.3125 58H12.6875C9.69083 58 7.25 55.5616 7.25 52.5625V27.1875C7.25 24.1884 9.69083 21.75 12.6875 21.75H45.3125C48.3092 21.75 50.75 24.1884 50.75 27.1875V52.5625C50.75 55.5616 48.3092 58 45.3125 58ZM12.6875 25.375C11.6894 25.375 10.875 26.187 10.875 27.1875V52.5625C10.875 53.563 11.6894 54.375 12.6875 54.375H45.3125C46.3106 54.375 47.125 53.563 47.125 52.5625V27.1875C47.125 26.187 46.3106 25.375 45.3125 25.375H12.6875Z" fill="black"/>
<path d="M41.6875 25.375C40.687 25.375 39.875 24.563 39.875 23.5625V14.5C39.875 8.50425 34.9957 3.625 29 3.625C23.0043 3.625 18.125 8.50425 18.125 14.5V23.5625C18.125 24.563 17.313 25.375 16.3125 25.375C15.312 25.375 14.5 24.563 14.5 23.5625V14.5C14.5 6.50325 21.0032 0 29 0C36.9968 0 43.5 6.50325 43.5 14.5V23.5625C43.5 24.563 42.688 25.375 41.6875 25.375Z" fill="black"/>
<path d="M29 41.0833C26.3344 41.0833 24.1666 38.9156 24.1666 36.25C24.1666 33.5844 26.3344 31.4167 29 31.4167C31.6655 31.4167 33.8333 33.5844 33.8333 36.25C33.8333 38.9156 31.6655 41.0833 29 41.0833ZM29 35.0417C28.3354 35.0417 27.7916 35.583 27.7916 36.25C27.7916 36.917 28.3354 37.4583 29 37.4583C29.6645 37.4583 30.2083 36.917 30.2083 36.25C30.2083 35.583 29.6645 35.0417 29 35.0417Z" fill="black"/>
<path d="M29 48.3333C27.9995 48.3333 27.1875 47.5213 27.1875 46.5208V39.875C27.1875 38.8745 27.9995 38.0625 29 38.0625C30.0005 38.0625 30.8125 38.8745 30.8125 39.875V46.5208C30.8125 47.5213 30.0005 48.3333 29 48.3333Z" fill="black"/>
</g>
<defs>
<clipPath id="clip0">
<rect width="58" height="58" fill="white"/>
</clipPath>
</defs>
</svg>
