<svg width="24" height="24" viewBox="0 0 24 24" fill="none" xmlns="http://www.w3.org/2000/svg">
<g clip-path="url(#clip0)">
<path d="M23.7744 22.6943L17.5779 16.5969C19.2006 14.834 20.1976 12.5024 20.1976 9.93682C20.1968 4.44852 15.6762 0 10.0994 0C4.52263 0 0.0020752 4.44852 0.0020752 9.93682C0.0020752 15.4251 4.52263 19.8736 10.0994 19.8736C12.509 19.8736 14.719 19.0402 16.4549 17.6546L22.6754 23.776C22.9785 24.0746 23.4706 24.0746 23.7736 23.776C24.0774 23.4775 24.0774 22.9929 23.7744 22.6943ZM10.0994 18.3448C5.38085 18.3448 1.5557 14.5804 1.5557 9.93682C1.5557 5.29321 5.38085 1.52884 10.0994 1.52884C14.8181 1.52884 18.6432 5.29321 18.6432 9.93682C18.6432 14.5804 14.8181 18.3448 10.0994 18.3448Z" fill="white"/>
</g>
<defs>
<clipPath id="clip0">
<rect width="24" height="24" fill="white"/>
</clipPath>
</defs>
</svg>
